<svg xmlns="http://www.w3.org/2000/svg" xmlns:xlink="http://www.w3.org/1999/xlink" viewBox="0 0 218 335"><defs><style>.cls-1{fill:url(#Градієнт_без_назви_43);}.cls-2{fill:url(#Градієнт_без_назви_23);}.cls-3{fill:none;}</style><linearGradient id="Градієнт_без_назви_43" x1="64.29" y1="282" x2="139.51" y2="8.39" gradientUnits="userSpaceOnUse"><stop offset="0" stop-color="#87350a"/><stop offset="0.4" stop-color="#751d24"/><stop offset="0.46" stop-color="#651924"/><stop offset="0.58" stop-color="#4d1323"/><stop offset="0.71" stop-color="#3b0f22"/><stop offset="0.84" stop-color="#300d22"/><stop offset="1" stop-color="#2d0c22"/></linearGradient><linearGradient id="Градієнт_без_назви_23" x1="64.56" y1="329.59" x2="57.93" y2="0.44" gradientUnits="userSpaceOnUse"><stop offset="0" stop-color="#2b1021"/><stop offset="0.07" stop-color="#2b0f21"/><stop offset="1" stop-color="#2d0c22"/></linearGradient></defs><g id="Шар_2" data-name="Шар 2"><path class="cls-1" d="M170.5,138.5c-.71,7.81-3.18,31.61-20,52-3.16,3.83-7.77,7.89-17,16-20.83,18.32-24.36,17.45-34,28-5.76,6.31-16.07,17.6-20,35-2.73,12.08-1.36,22.56,0,33,0,.27.07.54.11.81L79,303c-6.2-4.72-17.07-14.53-22-30-3-9.44-3-18.52-3-23a86.61,86.61,0,0,1,2-18c.74-3.31,4.26-18.07,18-36,11.27-14.71,15.17-13,33-34,7-8.32,10.78-13.71,14-20,3.07-6,7.71-15.27,8-27a98.59,98.59,0,0,0-1-14c-.7-5.87-1.34-8.17-2-10a32.65,32.65,0,0,0-5-9,133.3,133.3,0,0,0-21-53A132.06,132.06,0,0,0,73.16-.08,117.32,117.32,0,0,1,84.5,3.5a124.26,124.26,0,0,1,37,22,131,131,0,0,1,25,29,148,148,0,0,1,18,38C167.69,103,172.33,118.33,170.5,138.5Z"/><path class="cls-2" d="M116,132a76.48,76.48,0,0,1-10,16c-6.49,8.37-12.22,12.83-17,17a167.28,167.28,0,0,0-28,32c-7.77,11.27-15.59,22.92-17,39a92.46,92.46,0,0,0,0,13c.53,11.45.94,20.21,5,30,4.45,10.73,11.4,18.16,15,22,4.12,4.41,5.93,5.38,10,10a81.17,81.17,0,0,1,11,16.12c.15.48.3.93.45,1.38a95.37,95.37,0,0,1-34-9c-6.29-3-24.85-12.16-38-33C-.9,263.68,0,240.88.5,229.5a120,120,0,0,1,18-57c6.06-9.57,12.82-17,22-27,13.66-14.94,15.61-14.18,26-26,9.14-10.4,19.3-22.17,26-40,3.52-9.37,7.48-19.91,6-34-2-19-12.58-32.13-17-37a66.42,66.42,0,0,0-10-9l1.66.42A132.06,132.06,0,0,1,100,29a133.3,133.3,0,0,1,21,53c.33,2.11.75,5.22,1,9C122.6,100,123.47,115.54,116,132Z"/><path class="cls-3" d="M76,302l-2-1"/></g></svg>