<svg xmlns="http://www.w3.org/2000/svg" xmlns:xlink="http://www.w3.org/1999/xlink" viewBox="0 0 218 335"><defs><style>.cls-1{fill:none;}.cls-2{fill:url(#Градієнт_без_назви_59);}.cls-3{fill:url(#Градієнт_без_назви_56);}</style><linearGradient id="Градієнт_без_назви_59" x1="118.38" y1="335.42" x2="223.6" y2="165.42" gradientUnits="userSpaceOnUse"><stop offset="0" stop-color="#812c09"/><stop offset="0.21" stop-color="#86310b"/><stop offset="0.46" stop-color="#964012"/><stop offset="0.74" stop-color="#af591d"/><stop offset="1" stop-color="#cc762a"/></linearGradient><linearGradient id="Градієнт_без_назви_56" x1="79.92" y1="270.74" x2="212.61" y2="184.69" gradientUnits="userSpaceOnUse"><stop offset="0" stop-color="#b06b1c"/><stop offset="0.53" stop-color="#ca8b3c"/><stop offset="1" stop-color="#dda354"/></linearGradient></defs><g id="Шар_2" data-name="Шар 2"><path class="cls-1" d="M76,302l-2-1"/><path class="cls-2" d="M212,258a114,114,0,0,1-20,33c-29,32.71-74,37.21-84,38l0,0a3.85,3.85,0,0,0,0-.48c0-.17,0-.35,0-.52l0,0c.52-13.25,5.43-21.4,8-25a61.23,61.23,0,0,1,12-12c4.66-3.68,6.65-4.3,13-9a90,90,0,0,0,12-10c6.37-6.59,9.51-12.93,13-20s6.13-12.51,7-20a34.15,34.15,0,0,0-1-14,31.5,31.5,0,0,0-2-5c4.31-8.46,7.82-15.77,10.5-21.5a159.68,159.68,0,0,0,9-23c1.42-4.77,2.36-8.87,2-14A33.27,33.27,0,0,0,189,144a58,58,0,0,1,5,5c3.43,3.88,6.72,8.63,11,18a137.45,137.45,0,0,1,9,25,118.47,118.47,0,0,1,4,27A102.05,102.05,0,0,1,212,258Z"/><path class="cls-3" d="M189.5,168.5a159.68,159.68,0,0,1-9,23c-2.68,5.73-6.19,13-10.5,21.5-1.15,4.48-6.48,24.6-16,39a61.34,61.34,0,0,1-10,12c-3.6,3.31-5.88,4.57-11,8-11.68,7.84-17.52,11.76-23,18a72,72,0,0,0-10,15,79.32,79.32,0,0,0-5,11.94L94,316a174.28,174.28,0,0,1-1-27c.43-10.66.64-16.11,3-23,3.74-10.93,10.2-17.82,17-25,1.82-1.92,2.82-2.85,23-20,11.94-10.15,12.78-10.84,15-13a160.38,160.38,0,0,0,18-21c7.31-9.94,12.22-16.62,16-27a80,80,0,0,0,4-16,33.27,33.27,0,0,1,2.5,10.5C191.86,159.63,190.92,163.73,189.5,168.5Z"/></g></svg>