<svg width="32" height="33" viewBox="0 0 32 33" fill="none" xmlns="http://www.w3.org/2000/svg">
<g clip-path="url(#clip0_47_2254)">
<path d="M1.33337 1.54602H6.66671L10.24 19.3994C10.362 20.0132 10.6959 20.5646 11.1834 20.9571C11.671 21.3495 12.281 21.558 12.9067 21.546H25.8667C26.4924 21.558 27.1025 21.3495 27.59 20.9571C28.0775 20.5646 28.4114 20.0132 28.5334 19.3994L30.6667 8.21269H8.00004M13.3334 28.2127C13.3334 28.9491 12.7364 29.546 12 29.546C11.2637 29.546 10.6667 28.9491 10.6667 28.2127C10.6667 27.4763 11.2637 26.8794 12 26.8794C12.7364 26.8794 13.3334 27.4763 13.3334 28.2127ZM28 28.2127C28 28.9491 27.4031 29.546 26.6667 29.546C25.9303 29.546 25.3334 28.9491 25.3334 28.2127C25.3334 27.4763 25.9303 26.8794 26.6667 26.8794C27.4031 26.8794 28 27.4763 28 28.2127Z" stroke="#1E1E1E" stroke-width="3" stroke-linecap="round" stroke-linejoin="round"/>
</g>
<defs>
<clipPath id="clip0_47_2254">
<rect width="32" height="32" fill="white" transform="translate(0 0.212646)"/>
</clipPath>
</defs>
</svg>
