<svg width="16" height="16" viewBox="0 0 16 16" fill="none" xmlns="http://www.w3.org/2000/svg">
<g clip-path="url(#clip0_56_3028)">
<path d="M11.9598 11.9601C10.8202 12.8287 9.43257 13.31 7.99984 13.3334C3.33317 13.3334 0.666504 8.00008 0.666504 8.00008C1.49576 6.45468 2.64593 5.10449 4.03984 4.04008M6.59984 2.82675C7.05872 2.71933 7.52855 2.66564 7.99984 2.66675C12.6665 2.66675 15.3332 8.00008 15.3332 8.00008C14.9285 8.75715 14.4459 9.4699 13.8932 10.1267M9.41317 9.41341C9.23007 9.60991 9.00927 9.76752 8.76394 9.87683C8.51861 9.98614 8.25377 10.0449 7.98523 10.0497C7.71669 10.0544 7.44994 10.005 7.20091 9.90441C6.95187 9.80382 6.72565 9.6541 6.53573 9.46418C6.34582 9.27427 6.1961 9.04804 6.09551 8.79901C5.99492 8.54997 5.94552 8.28323 5.95026 8.01469C5.955 7.74615 6.01378 7.48131 6.12309 7.23598C6.2324 6.99065 6.39001 6.76985 6.5865 6.58675M0.666504 0.666748L15.3332 15.3334" stroke="#1E1E1E" stroke-width="2" stroke-linecap="round" stroke-linejoin="round"/>
</g>
<defs>
<clipPath id="clip0_56_3028">
<rect width="16" height="16" fill="white"/>
</clipPath>
</defs>
</svg>
