<svg width="44" height="45" viewBox="0 0 44 45" fill="none" xmlns="http://www.w3.org/2000/svg">
<path d="M22 43.9253C10.1259 43.9253 0.5 34.2994 0.5 22.4253C0.5 10.5512 10.1259 0.925293 22 0.925293C33.8741 0.925293 43.5 10.5512 43.5 22.4253C43.5 34.2994 33.8741 43.9253 22 43.9253Z" fill="#2C2C2C"/>
<path d="M22 43.9253C10.1259 43.9253 0.5 34.2994 0.5 22.4253C0.5 10.5512 10.1259 0.925293 22 0.925293C33.8741 0.925293 43.5 10.5512 43.5 22.4253C43.5 34.2994 33.8741 43.9253 22 43.9253Z" stroke="#2C2C2C" stroke-linecap="round"/>
<path d="M29.3667 16.267C28.9411 15.8412 28.4357 15.5034 27.8795 15.2729C27.3233 15.0425 26.7271 14.9238 26.1251 14.9238C25.523 14.9238 24.9268 15.0425 24.3706 15.2729C23.8144 15.5034 23.309 15.8412 22.8834 16.267L22.0001 17.1503L21.1167 16.267C20.257 15.4073 19.0909 14.9243 17.8751 14.9243C16.6592 14.9243 15.4931 15.4073 14.6334 16.267C13.7736 17.1268 13.2906 18.2928 13.2906 19.5087C13.2906 20.7245 13.7736 21.8906 14.6334 22.7503L22.0001 30.117L29.3667 22.7503C29.7926 22.3247 30.1304 21.8194 30.3608 21.2631C30.5913 20.7069 30.7099 20.1108 30.7099 19.5087C30.7099 18.9066 30.5913 18.3104 30.3608 17.7542C30.1304 17.198 29.7926 16.6926 29.3667 16.267Z" fill="#F5F5F5" stroke="#F5F5F5" stroke-width="1.6" stroke-linecap="round" stroke-linejoin="round"/>
</svg>
