<svg width="24" height="25" viewBox="0 0 24 25" fill="none" xmlns="http://www.w3.org/2000/svg">
<g clip-path="url(#clip0_14_2241)">
<path d="M12 2.58829C15.204 2.58829 15.584 2.60029 16.85 2.65829C20.102 2.80629 21.621 4.34929 21.769 7.57729C21.827 8.84229 21.838 9.22229 21.838 12.4263C21.838 15.6313 21.826 16.0103 21.769 17.2753C21.62 20.5003 20.105 22.0463 16.85 22.1943C15.584 22.2523 15.206 22.2643 12 22.2643C8.796 22.2643 8.416 22.2523 7.151 22.1943C3.891 22.0453 2.38 20.4953 2.232 17.2743C2.174 16.0093 2.162 15.6303 2.162 12.4253C2.162 9.22129 2.175 8.84229 2.232 7.57629C2.381 4.34929 3.896 2.80529 7.151 2.65729C8.417 2.60029 8.796 2.58829 12 2.58829ZM12 0.425293C8.741 0.425293 8.333 0.439293 7.053 0.497293C2.695 0.697293 0.273 3.11529 0.073 7.47729C0.014 8.75829 0 9.16629 0 12.4253C0 15.6843 0.014 16.0933 0.072 17.3733C0.272 21.7313 2.69 24.1533 7.052 24.3533C8.333 24.4113 8.741 24.4253 12 24.4253C15.259 24.4253 15.668 24.4113 16.948 24.3533C21.302 24.1533 23.73 21.7353 23.927 17.3733C23.986 16.0933 24 15.6843 24 12.4253C24 9.16629 23.986 8.75829 23.928 7.47829C23.732 3.12429 21.311 0.698293 16.949 0.498293C15.668 0.439293 15.259 0.425293 12 0.425293ZM12 6.26329C8.597 6.26329 5.838 9.02229 5.838 12.4253C5.838 15.8283 8.597 18.5883 12 18.5883C15.403 18.5883 18.162 15.8293 18.162 12.4253C18.162 9.02229 15.403 6.26329 12 6.26329ZM12 16.4253C9.791 16.4253 8 14.6353 8 12.4253C8 10.2163 9.791 8.42529 12 8.42529C14.209 8.42529 16 10.2163 16 12.4253C16 14.6353 14.209 16.4253 12 16.4253ZM18.406 4.58029C17.61 4.58029 16.965 5.22529 16.965 6.02029C16.965 6.81529 17.61 7.46029 18.406 7.46029C19.201 7.46029 19.845 6.81529 19.845 6.02029C19.845 5.22529 19.201 4.58029 18.406 4.58029Z" fill="#1E1E1E"/>
</g>
<defs>
<clipPath id="clip0_14_2241">
<rect width="24" height="24" fill="white" transform="translate(0 0.425293)"/>
</clipPath>
</defs>
</svg>
