<svg width="24" height="35" viewBox="0 0 24 35" fill="none" xmlns="http://www.w3.org/2000/svg">
<path d="M18.4037 14.5223C18.3295 15.3383 18.0716 17.8249 16.3149 19.9552C15.9849 20.3553 15.5035 20.7795 14.5395 21.6268C12.3641 23.5408 11.9955 23.4499 10.9887 24.5522C10.3872 25.2114 9.31044 26.391 8.9 28.2089C8.61489 29.471 8.75797 30.5659 8.9 31.6567C8.9 31.6849 8.90731 31.7131 8.91149 31.7413L8.84779 31.7089C8.20028 31.2158 7.06507 30.1908 6.5502 28.5746C6.23689 27.5883 6.23689 26.6396 6.23689 26.1716C6.24063 25.5391 6.31064 24.9088 6.44576 24.291C6.52305 23.9452 6.89066 22.4031 8.32561 20.5298C9.5026 18.9929 9.9099 19.1716 11.772 16.9776C12.503 16.1083 12.8978 15.5452 13.2341 14.888C13.5547 14.2611 14.0393 13.2926 14.0696 12.0671C14.0695 11.5777 14.0346 11.0889 13.9651 10.6044C13.892 9.99114 13.8252 9.75084 13.7563 9.55964C13.633 9.22056 13.4568 8.90318 13.2341 8.61935C12.9107 6.63695 12.1626 4.74799 11.0409 3.08203C10.2644 1.9342 9.31947 0.909966 8.23788 0.0438232C8.63872 0.148392 9.03399 0.273229 9.42218 0.417853C10.8341 0.953295 12.1417 1.73113 13.2863 2.71636C14.3002 3.59294 15.1799 4.61379 15.8972 5.74621C16.7095 6.97335 17.3425 8.31022 17.777 9.71636C18.1102 10.8134 18.5948 12.415 18.4037 14.5223Z" fill="url(#paint0_linear_14_2176)"/>
<path d="M12.7119 13.8433C12.4341 14.4415 12.0833 15.003 11.6676 15.5149C10.9898 16.3894 10.3913 16.8554 9.89215 17.291C8.77922 18.2765 7.79655 19.4 6.96794 20.6343C6.15648 21.8118 5.33979 23.029 5.19254 24.709C5.16068 25.1611 5.16068 25.615 5.19254 26.0672C5.24789 27.2634 5.29071 28.1787 5.71472 29.2015C6.17945 30.3225 6.90528 31.0988 7.28125 31.5C7.71153 31.9607 7.90056 32.0621 8.32561 32.5448C8.77485 33.0579 9.16057 33.6234 9.4744 34.229C9.49007 34.2791 9.50573 34.3261 9.5214 34.3731C8.28976 34.2826 7.08568 33.9638 5.97058 33.4328C5.31368 33.1194 3.37536 32.1624 2.00203 29.9851C0.503373 27.6009 0.597365 25.2188 0.649583 24.0299C0.764049 21.9179 1.41073 19.8693 2.52943 18.0746C3.16231 17.0748 3.86829 16.2985 4.82701 15.2537C6.2536 13.6928 6.45725 13.7722 7.54234 12.5373C8.49688 11.4507 9.55795 10.221 10.2577 8.35821C10.6253 7.37925 11.0388 6.27806 10.8843 4.80597C10.6754 2.8209 9.57048 1.4491 9.10888 0.940299C8.79347 0.592312 8.44355 0.277263 8.06452 0L8.23788 0.0438806C9.31947 0.910023 10.2644 1.93426 11.0409 3.08209C12.1626 4.74805 12.9107 6.63701 13.2341 8.6194C13.2686 8.83985 13.3124 9.16478 13.3385 9.5597C13.4012 10.5 13.492 12.1236 12.7119 13.8433Z" fill="url(#paint1_linear_14_2176)"/>
<path d="M22.7377 27.0075C22.2424 28.2671 21.536 29.4331 20.649 30.4553C17.6204 33.8727 12.9208 34.3429 11.8764 34.4254C11.8775 34.4087 11.8775 34.392 11.8764 34.3753C11.8764 34.3575 11.8764 34.3387 11.8764 34.3209C11.9307 32.9366 12.4435 32.0851 12.7119 31.709C13.0695 31.2349 13.4913 30.8129 13.9651 30.4553C14.4518 30.0708 14.6596 30.006 15.3228 29.515C15.77 29.2037 16.1893 28.8541 16.576 28.4702C17.2413 27.7817 17.5692 27.1193 17.9337 26.3806C18.2982 25.642 18.5739 25.0736 18.6648 24.2911C18.7315 23.8015 18.696 23.3035 18.5603 22.8284C18.5057 22.6486 18.4358 22.4738 18.3514 22.306C18.8016 21.4221 19.1681 20.6584 19.448 20.0597C19.8229 19.2842 20.1371 18.4808 20.3879 17.6567C20.5362 17.1584 20.6344 16.73 20.5968 16.1941C20.57 15.8166 20.4819 15.4461 20.3357 15.097C20.5202 15.2604 20.6946 15.4348 20.8579 15.6194C21.2161 16.0248 21.5597 16.5211 22.0067 17.5C22.4036 18.3383 22.7184 19.213 22.9466 20.112C23.194 21.033 23.3342 21.9796 23.3644 22.9329C23.4225 24.3189 23.2096 25.703 22.7377 27.0075Z" fill="url(#paint2_linear_14_2176)"/>
<path d="M20.3879 17.6567C20.1371 18.4808 19.8229 19.2842 19.448 20.0597C19.1681 20.6584 18.8016 21.4179 18.3514 22.306C18.2313 22.7741 17.6747 24.8762 16.6805 26.3806C16.3872 26.8414 16.0362 27.2627 15.6361 27.6344C15.2601 27.9802 15.022 28.1118 14.4873 28.4702C13.2675 29.2893 12.6576 29.6988 12.0853 30.3508C11.6729 30.8273 11.3221 31.3538 11.0409 31.9179C10.8332 32.3188 10.6586 32.736 10.5188 33.1654L10.4143 33.0672C10.3066 32.131 10.2717 31.1879 10.3099 30.2463C10.3548 29.1326 10.3767 28.5632 10.6232 27.8433C11.0138 26.7014 11.6884 25.9815 12.3986 25.2314C12.5887 25.0308 12.6931 24.9336 14.8006 23.1418C16.0476 22.0814 16.1353 22.0093 16.3672 21.7836C17.0558 21.1078 17.6847 20.3737 18.247 19.5896C19.0104 18.5511 19.5232 17.8532 19.918 16.7687C20.1144 16.2274 20.2544 15.6672 20.3357 15.097C20.4819 15.4461 20.57 15.8166 20.5968 16.1941C20.6344 16.73 20.5362 17.1584 20.3879 17.6567Z" fill="url(#paint3_linear_14_2176)"/>
<defs>
<linearGradient id="paint0_linear_14_2176" x1="7.31154" y1="29.5149" x2="15.173" y2="0.93036" gradientUnits="userSpaceOnUse">
<stop stop-color="#87350A"/>
<stop offset="0.4" stop-color="#751D24"/>
<stop offset="0.46" stop-color="#651924"/>
<stop offset="0.58" stop-color="#4D1323"/>
<stop offset="0.71" stop-color="#3B0F22"/>
<stop offset="0.84" stop-color="#300D22"/>
<stop offset="1" stop-color="#2D0C22"/>
</linearGradient>
<linearGradient id="paint1_linear_14_2176" x1="7.33974" y1="34.487" x2="6.64677" y2="0.0982194" gradientUnits="userSpaceOnUse">
<stop stop-color="#2B1021"/>
<stop offset="0.07" stop-color="#2B0F21"/>
<stop offset="1" stop-color="#2D0C22"/>
</linearGradient>
<linearGradient id="paint2_linear_14_2176" x1="12.9605" y1="35.0961" x2="23.9556" y2="17.3389" gradientUnits="userSpaceOnUse">
<stop stop-color="#812C09"/>
<stop offset="0.21" stop-color="#86310B"/>
<stop offset="0.46" stop-color="#964012"/>
<stop offset="0.74" stop-color="#AF591D"/>
<stop offset="1" stop-color="#CC762A"/>
</linearGradient>
<linearGradient id="paint3_linear_14_2176" x1="8.94387" y1="28.3385" x2="22.8047" y2="19.3533" gradientUnits="userSpaceOnUse">
<stop stop-color="#B06B1C"/>
<stop offset="0.53" stop-color="#CA8B3C"/>
<stop offset="1" stop-color="#DDA354"/>
</linearGradient>
</defs>
</svg>
